<svg width="160" height="240" viewBox="0 0 160 240" fill="none" xmlns="http://www.w3.org/2000/svg">
<g clip-path="url(#clip0_526_2514)">
<rect width="160" height="240" rx="20" fill="white"/>
<g opacity="0.2">
<path d="M49.1499 189.077C66.6161 172.078 101.937 129.875 119.597 97.0498C137.063 129.875 172.384 172.078 189.85 189.077C172.384 206.271 137.257 248.475 119.597 281.3C101.937 248.475 66.6161 206.271 49.1499 189.077Z" fill="#FF4E4E"/>
</g>
<g opacity="0.2">
<path d="M73.8999 27.9886C84.8489 17.3327 106.99 -9.12331 118.061 -29.7002C129.01 -9.12331 151.151 17.3327 162.1 27.9886C151.151 38.7669 129.131 65.2229 118.061 85.7998C106.99 65.2229 84.8489 38.7669 73.8999 27.9886Z" fill="#FF4E4E"/>
</g>
<path d="M19 40.4708C24.2138 35.3966 34.7572 22.7985 40.029 13C45.2428 22.7985 55.7862 35.3966 61 40.4708C55.7862 45.6034 45.3007 58.2015 40.029 68C34.7572 58.2015 24.2138 45.6034 19 40.4708Z" fill="#FF4E4E"/>
<path d="M133.201 180.6L111.481 213L89.1609 213L109.801 183L108.721 183C98.9609 183 90.8809 180.12 84.4809 174.36C78.1609 168.6 75.0009 161 75.0009 151.56C75.0009 141.72 78.2409 133.72 84.7209 127.56C91.2809 121.32 99.5609 118.2 109.561 118.2C119.641 118.2 127.961 121.28 134.521 127.44C141.161 133.6 144.481 141.64 144.481 151.56C144.481 159.8 140.721 169.48 133.201 180.6ZM93.8409 151.56C93.8409 156.2 95.3209 159.96 98.2809 162.84C101.321 165.72 105.161 167.16 109.801 167.16C114.441 167.16 118.241 165.72 121.201 162.84C124.161 159.96 125.641 156.2 125.641 151.56C125.641 146.92 124.081 143.16 120.961 140.28C117.921 137.4 114.081 135.96 109.441 135.96C104.961 135.96 101.241 137.44 98.2809 140.4C95.3209 143.28 93.8409 147 93.8409 151.56Z" fill="#FF4E4E"/>
</g>
<rect x="1.5" y="1.5" width="157" height="237" rx="18.5" stroke="#FF4E4E" stroke-width="3"/>
<defs>
<clipPath id="clip0_526_2514">
<rect width="160" height="240" rx="20" fill="white"/>
</clipPath>
</defs>
</svg>
