<svg width="160" height="240" viewBox="0 0 160 240" fill="none" xmlns="http://www.w3.org/2000/svg">
<g clip-path="url(#clip0_526_2401)">
<rect width="160" height="240" rx="20" fill="white"/>
<g opacity="0.2">
<path d="M118.311 136.304C127.052 114.352 144.147 107.1 159.3 107.1C181.445 107.1 199.9 127.68 199.9 154.532C199.9 183.54 176.783 204.512 162.214 218.624C144.342 235.872 125.498 259.196 118.311 270.956C118.116 271.348 117.728 271.348 117.534 270.956C110.346 259.196 91.3085 235.872 73.4365 218.624C58.867 204.512 35.75 183.344 35.75 154.532C35.75 127.68 54.2047 107.1 76.3504 107.1C91.5027 107.1 108.209 114.156 117.534 136.304C117.728 136.892 118.116 136.892 118.311 136.304Z" fill="#FF4E4E"/>
</g>
<g opacity="0.2">
<path d="M117.254 -5.0934C122.734 -18.8544 133.451 -23.4004 142.949 -23.4004C156.831 -23.4004 168.4 -10.4995 168.4 6.33311C168.4 24.5172 153.909 37.6638 144.776 46.5102C133.572 57.3224 121.76 71.9434 117.254 79.3153C117.133 79.561 116.889 79.561 116.767 79.3153C112.262 71.9434 100.328 57.3224 89.1244 46.5102C79.9912 37.6638 65.5 24.3944 65.5 6.33311C65.5 -10.4995 77.0686 -23.4004 90.951 -23.4004C100.449 -23.4004 110.922 -18.9772 116.767 -5.0934C116.889 -4.72481 117.133 -4.72481 117.254 -5.0934Z" fill="#FF4E4E"/>
</g>
<path d="M39.645 24.7176C42.2544 18.1648 47.3574 16 51.8805 16C58.4911 16 64 22.1433 64 30.1588C64 38.8179 57.0994 45.0782 52.7503 49.2907C47.4154 54.4394 41.7905 61.4018 39.645 64.9122C39.587 65.0293 39.471 65.0293 39.413 64.9122C37.2675 61.4018 31.5846 54.4394 26.2497 49.2907C21.9006 45.0782 15 38.7594 15 30.1588C15 22.1433 20.5089 16 27.1195 16C31.6426 16 36.6296 18.1063 39.413 24.7176C39.471 24.8931 39.587 24.8931 39.645 24.7176Z" fill="#FF4E4E"/>
<path d="M122.315 175.08L99.7547 192.12C98.9547 192.76 98.5547 193.4 98.5547 194.04C98.5547 194.84 98.9947 195.24 99.8747 195.24L141.635 195.24L141.635 213L92.5547 213C87.7547 213 83.7547 211.68 80.5547 209.04C77.4347 206.32 75.8747 202.6 75.8747 197.88C75.8747 191.64 80.3147 185.24 89.1947 178.68L111.155 162.12C111.395 161.96 112.075 161.44 113.195 160.56C114.395 159.68 115.155 159.12 115.475 158.88C115.795 158.64 116.435 158.12 117.395 157.32C118.435 156.44 119.115 155.8 119.435 155.4C119.755 155 120.235 154.4 120.875 153.6C121.515 152.8 121.955 152.12 122.195 151.56C122.435 150.92 122.675 150.2 122.915 149.4C123.155 148.52 123.275 147.64 123.275 146.76C123.275 143.32 121.995 140.64 119.435 138.72C116.955 136.72 113.755 135.72 109.835 135.72C105.515 135.72 101.755 137.12 98.5547 139.92C95.4347 142.72 93.8347 146.28 93.7547 150.6L74.5547 150.6C75.0347 140.92 78.5147 133.12 84.9947 127.2C91.4747 121.2 99.7947 118.2 109.955 118.2C119.475 118.2 127.235 120.68 133.235 125.64C139.315 130.6 142.355 137.4 142.355 146.04C142.355 151.8 140.555 156.92 136.955 161.4C133.435 165.8 128.555 170.36 122.315 175.08Z" fill="#FF4E4E"/>
</g>
<rect x="1.5" y="1.5" width="157" height="237" rx="18.5" stroke="#FF4E4E" stroke-width="3"/>
<defs>
<clipPath id="clip0_526_2401">
<rect width="160" height="240" rx="20" fill="white"/>
</clipPath>
</defs>
</svg>
