<svg width="160" height="240" viewBox="0 0 160 240" fill="none" xmlns="http://www.w3.org/2000/svg">
<g clip-path="url(#clip0_526_2515)">
<rect width="160" height="240" rx="20" fill="white"/>
<g opacity="0.2">
<path d="M49.1499 189.077C66.6161 172.078 101.937 129.875 119.597 97.0498C137.063 129.875 172.384 172.078 189.85 189.077C172.384 206.271 137.257 248.475 119.597 281.3C101.937 248.475 66.6161 206.271 49.1499 189.077Z" fill="#FF4E4E"/>
</g>
<g opacity="0.2">
<path d="M73.8999 27.9886C84.8489 17.3327 106.99 -9.12331 118.061 -29.7002C129.01 -9.12331 151.151 17.3327 162.1 27.9886C151.151 38.7669 129.131 65.2229 118.061 85.7998C106.99 65.2229 84.8489 38.7669 73.8999 27.9886Z" fill="#FF4E4E"/>
</g>
<path d="M19 40.4708C24.2138 35.3966 34.7572 22.7985 40.029 13C45.2428 22.7985 55.7862 35.3966 61 40.4708C55.7862 45.6034 45.3007 58.2015 40.029 68C34.7572 58.2015 24.2138 45.6034 19 40.4708Z" fill="#FF4E4E"/>
<path d="M85.8638 195.24L85.8638 213L20.3438 213L20.3438 195.24L44.2238 195.24L44.2237 140.76C44.2237 138.36 43.0237 137.16 40.6237 137.16L21.4237 137.16L21.4237 119.4L47.2237 119.4C52.1037 119.4 55.9037 120.76 58.6237 123.48C61.4237 126.2 62.8237 130.04 62.8237 135L62.8238 195.24L85.8638 195.24ZM137.537 141.96C140.017 149 141.257 157.08 141.257 166.2C141.257 175.32 140.017 183.4 137.537 190.44C135.137 197.48 131.097 203.2 125.417 207.6C119.817 212 112.897 214.2 104.657 214.2C96.4169 214.2 89.4969 212 83.8969 207.6C78.2969 203.2 74.2569 197.48 71.7769 190.44C69.2969 183.4 68.0569 175.32 68.0569 166.2C68.0569 157.08 69.2969 149 71.7769 141.96C74.2569 134.92 78.2969 129.2 83.8969 124.8C89.4969 120.4 96.4169 118.2 104.657 118.2C112.897 118.2 119.817 120.4 125.417 124.8C131.097 129.2 135.137 134.92 137.537 141.96ZM87.7369 155.64C87.1769 159 86.8969 162.52 86.8969 166.2C86.8969 169.88 87.1769 173.4 87.7369 176.76C88.2969 180.12 89.2169 183.36 90.4969 186.48C91.7769 189.52 93.6169 191.96 96.0169 193.8C98.4969 195.56 101.377 196.44 104.657 196.44C107.937 196.44 110.777 195.56 113.177 193.8C115.657 191.96 117.537 189.52 118.817 186.48C120.097 183.36 121.017 180.12 121.577 176.76C122.137 173.4 122.417 169.88 122.417 166.2C122.417 162.52 122.137 159 121.577 155.64C121.017 152.28 120.097 149.08 118.817 146.04C117.537 142.92 115.657 140.48 113.177 138.72C110.777 136.88 107.937 135.96 104.657 135.96C101.377 135.96 98.4969 136.88 96.0169 138.72C93.6169 140.48 91.7769 142.92 90.4969 146.04C89.2169 149.08 88.2969 152.28 87.7369 155.64Z" fill="#FF4E4E"/>
</g>
<rect x="1.5" y="1.5" width="157" height="237" rx="18.5" stroke="#FF4E4E" stroke-width="3"/>
<defs>
<clipPath id="clip0_526_2515">
<rect width="160" height="240" rx="20" fill="white"/>
</clipPath>
</defs>
</svg>
