<svg width="160" height="240" viewBox="0 0 160 240" fill="none" xmlns="http://www.w3.org/2000/svg">
<g clip-path="url(#clip0_526_2473)">
<rect width="160" height="240" rx="20" fill="white"/>
<g opacity="0.2">
<path d="M118.311 136.304C127.052 114.352 144.147 107.1 159.3 107.1C181.445 107.1 199.9 127.68 199.9 154.532C199.9 183.54 176.783 204.512 162.214 218.624C144.342 235.872 125.498 259.196 118.311 270.956C118.116 271.348 117.728 271.348 117.534 270.956C110.346 259.196 91.3085 235.872 73.4365 218.624C58.867 204.512 35.75 183.344 35.75 154.532C35.75 127.68 54.2047 107.1 76.3504 107.1C91.5027 107.1 108.209 114.156 117.534 136.304C117.728 136.892 118.116 136.892 118.311 136.304Z" fill="#FF4E4E"/>
</g>
<g opacity="0.2">
<path d="M117.254 -5.0934C122.734 -18.8544 133.451 -23.4004 142.949 -23.4004C156.831 -23.4004 168.4 -10.4995 168.4 6.33311C168.4 24.5172 153.909 37.6638 144.776 46.5102C133.572 57.3224 121.76 71.9434 117.254 79.3153C117.133 79.561 116.889 79.561 116.767 79.3153C112.262 71.9434 100.328 57.3224 89.1244 46.5102C79.9912 37.6638 65.5 24.3944 65.5 6.33311C65.5 -10.4995 77.0686 -23.4004 90.951 -23.4004C100.449 -23.4004 110.922 -18.9772 116.767 -5.0934C116.889 -4.72481 117.133 -4.72481 117.254 -5.0934Z" fill="#FF4E4E"/>
</g>
<path d="M39.645 24.7176C42.2544 18.1648 47.3574 16 51.8805 16C58.4911 16 64 22.1433 64 30.1588C64 38.8179 57.0994 45.0782 52.7503 49.2907C47.4154 54.4394 41.7905 61.4018 39.645 64.9122C39.587 65.0293 39.471 65.0293 39.413 64.9122C37.2675 61.4018 31.5846 54.4394 26.2497 49.2907C21.9006 45.0782 15 38.7594 15 30.1588C15 22.1433 20.5089 16 27.1195 16C31.6426 16 36.6296 18.1063 39.413 24.7176C39.471 24.8931 39.587 24.8931 39.645 24.7176Z" fill="#FF4E4E"/>
<path d="M85.8638 195.24L85.8638 213L20.3438 213L20.3438 195.24L44.2238 195.24L44.2237 140.76C44.2237 138.36 43.0237 137.16 40.6237 137.16L21.4237 137.16L21.4237 119.4L47.2237 119.4C52.1037 119.4 55.9037 120.76 58.6237 123.48C61.4237 126.2 62.8237 130.04 62.8237 135L62.8238 195.24L85.8638 195.24ZM137.537 141.96C140.017 149 141.257 157.08 141.257 166.2C141.257 175.32 140.017 183.4 137.537 190.44C135.137 197.48 131.097 203.2 125.417 207.6C119.817 212 112.897 214.2 104.657 214.2C96.4169 214.2 89.4969 212 83.8969 207.6C78.2969 203.2 74.2569 197.48 71.7769 190.44C69.2969 183.4 68.0569 175.32 68.0569 166.2C68.0569 157.08 69.2969 149 71.7769 141.96C74.2569 134.92 78.2969 129.2 83.8969 124.8C89.4969 120.4 96.4169 118.2 104.657 118.2C112.897 118.2 119.817 120.4 125.417 124.8C131.097 129.2 135.137 134.92 137.537 141.96ZM87.7369 155.64C87.1769 159 86.8969 162.52 86.8969 166.2C86.8969 169.88 87.1769 173.4 87.7369 176.76C88.2969 180.12 89.2169 183.36 90.4969 186.48C91.7769 189.52 93.6169 191.96 96.0169 193.8C98.4969 195.56 101.377 196.44 104.657 196.44C107.937 196.44 110.777 195.56 113.177 193.8C115.657 191.96 117.537 189.52 118.817 186.48C120.097 183.36 121.017 180.12 121.577 176.76C122.137 173.4 122.417 169.88 122.417 166.2C122.417 162.52 122.137 159 121.577 155.64C121.017 152.28 120.097 149.08 118.817 146.04C117.537 142.92 115.657 140.48 113.177 138.72C110.777 136.88 107.937 135.96 104.657 135.96C101.377 135.96 98.4969 136.88 96.0169 138.72C93.6169 140.48 91.7769 142.92 90.4969 146.04C89.2169 149.08 88.2969 152.28 87.7369 155.64Z" fill="#FF4E4E"/>
</g>
<rect x="1.5" y="1.5" width="157" height="237" rx="18.5" stroke="#FF4E4E" stroke-width="3"/>
<defs>
<clipPath id="clip0_526_2473">
<rect width="160" height="240" rx="20" fill="white"/>
</clipPath>
</defs>
</svg>
