<svg width="160" height="240" viewBox="0 0 160 240" fill="none" xmlns="http://www.w3.org/2000/svg">
<g clip-path="url(#clip0_526_2449)">
<rect width="160" height="240" rx="20" fill="white"/>
<g opacity="0.2">
<path d="M118.311 136.304C127.052 114.352 144.147 107.1 159.3 107.1C181.445 107.1 199.9 127.68 199.9 154.532C199.9 183.54 176.783 204.512 162.214 218.624C144.342 235.872 125.498 259.196 118.311 270.956C118.116 271.348 117.728 271.348 117.534 270.956C110.346 259.196 91.3085 235.872 73.4365 218.624C58.867 204.512 35.75 183.344 35.75 154.532C35.75 127.68 54.2047 107.1 76.3504 107.1C91.5027 107.1 108.209 114.156 117.534 136.304C117.728 136.892 118.116 136.892 118.311 136.304Z" fill="#FF4E4E"/>
</g>
<g opacity="0.2">
<path d="M117.254 -5.0934C122.734 -18.8544 133.451 -23.4004 142.949 -23.4004C156.831 -23.4004 168.4 -10.4995 168.4 6.33311C168.4 24.5172 153.909 37.6638 144.776 46.5102C133.572 57.3224 121.76 71.9434 117.254 79.3153C117.133 79.561 116.889 79.561 116.767 79.3153C112.262 71.9434 100.328 57.3224 89.1244 46.5102C79.9912 37.6638 65.5 24.3944 65.5 6.33311C65.5 -10.4995 77.0686 -23.4004 90.951 -23.4004C100.449 -23.4004 110.922 -18.9772 116.767 -5.0934C116.889 -4.72481 117.133 -4.72481 117.254 -5.0934Z" fill="#FF4E4E"/>
</g>
<path d="M39.645 24.7176C42.2544 18.1648 47.3574 16 51.8805 16C58.4911 16 64 22.1433 64 30.1588C64 38.8179 57.0994 45.0782 52.7503 49.2907C47.4154 54.4394 41.7905 61.4018 39.645 64.9122C39.587 65.0293 39.471 65.0293 39.413 64.9122C37.2675 61.4018 31.5846 54.4394 26.2497 49.2907C21.9006 45.0782 15 38.7594 15 30.1588C15 22.1433 20.5089 16 27.1195 16C31.6426 16 36.6296 18.1063 39.413 24.7176C39.471 24.8931 39.587 24.8931 39.645 24.7176Z" fill="#FF4E4E"/>
<path d="M141.833 186.12C141.833 194.6 138.713 201.4 132.473 206.52C126.233 211.64 117.953 214.2 107.633 214.2C97.3134 214.2 89.0334 211.64 82.7934 206.52C76.5534 201.4 73.4334 194.6 73.4334 186.12C73.4334 181.16 74.7534 176.76 77.3934 172.92C80.0334 169 83.7534 165.92 88.5534 163.68C80.9534 159.12 77.1534 152.4 77.1534 143.52C77.1534 135.92 79.9534 129.8 85.5534 125.16C91.1534 120.52 98.5134 118.2 107.633 118.2C116.753 118.2 124.113 120.52 129.713 125.16C135.313 129.8 138.113 135.92 138.113 143.52C138.113 152.32 134.313 159.04 126.713 163.68C131.513 165.84 135.233 168.88 137.873 172.8C140.513 176.72 141.833 181.16 141.833 186.12ZM116.393 138.24C114.073 136.24 111.153 135.24 107.633 135.24C104.113 135.24 101.193 136.24 98.8734 138.24C96.5534 140.16 95.3934 142.64 95.3934 145.68C95.3934 148.72 96.5134 151.2 98.7534 153.12C101.073 155.04 104.033 156 107.633 156C111.233 156 114.153 155.04 116.393 153.12C118.713 151.2 119.873 148.72 119.873 145.68C119.873 142.64 118.713 140.16 116.393 138.24ZM117.833 176.4C115.273 174.16 111.873 173.04 107.633 173.04C103.393 173.04 99.9534 174.16 97.3134 176.4C94.7534 178.56 93.4734 181.4 93.4734 184.92C93.4734 188.52 94.7534 191.48 97.3134 193.8C99.9534 196.04 103.393 197.16 107.633 197.16C111.873 197.16 115.273 196.04 117.833 193.8C120.473 191.48 121.793 188.52 121.793 184.92C121.793 181.4 120.473 178.56 117.833 176.4Z" fill="#FF4E4E"/>
</g>
<rect x="1.5" y="1.5" width="157" height="237" rx="18.5" stroke="#FF4E4E" stroke-width="3"/>
<defs>
<clipPath id="clip0_526_2449">
<rect width="160" height="240" rx="20" fill="white"/>
</clipPath>
</defs>
</svg>
