<svg width="160" height="240" viewBox="0 0 160 240" fill="none" xmlns="http://www.w3.org/2000/svg">
<g clip-path="url(#clip0_526_2513)">
<rect width="160" height="240" rx="20" fill="white"/>
<g opacity="0.2">
<path d="M49.1499 189.077C66.6161 172.078 101.937 129.875 119.597 97.0498C137.063 129.875 172.384 172.078 189.85 189.077C172.384 206.271 137.257 248.475 119.597 281.3C101.937 248.475 66.6161 206.271 49.1499 189.077Z" fill="#FF4E4E"/>
</g>
<g opacity="0.2">
<path d="M73.8999 27.9886C84.8489 17.3327 106.99 -9.12331 118.061 -29.7002C129.01 -9.12331 151.151 17.3327 162.1 27.9886C151.151 38.7669 129.131 65.2229 118.061 85.7998C106.99 65.2229 84.8489 38.7669 73.8999 27.9886Z" fill="#FF4E4E"/>
</g>
<path d="M19 40.4708C24.2138 35.3966 34.7572 22.7985 40.029 13C45.2428 22.7985 55.7862 35.3966 61 40.4708C55.7862 45.6034 45.3007 58.2015 40.029 68C34.7572 58.2015 24.2138 45.6034 19 40.4708Z" fill="#FF4E4E"/>
<path d="M141.833 186.12C141.833 194.6 138.713 201.4 132.473 206.52C126.233 211.64 117.953 214.2 107.633 214.2C97.3134 214.2 89.0334 211.64 82.7934 206.52C76.5534 201.4 73.4334 194.6 73.4334 186.12C73.4334 181.16 74.7534 176.76 77.3934 172.92C80.0334 169 83.7534 165.92 88.5534 163.68C80.9534 159.12 77.1534 152.4 77.1534 143.52C77.1534 135.92 79.9534 129.8 85.5534 125.16C91.1534 120.52 98.5134 118.2 107.633 118.2C116.753 118.2 124.113 120.52 129.713 125.16C135.313 129.8 138.113 135.92 138.113 143.52C138.113 152.32 134.313 159.04 126.713 163.68C131.513 165.84 135.233 168.88 137.873 172.8C140.513 176.72 141.833 181.16 141.833 186.12ZM116.393 138.24C114.073 136.24 111.153 135.24 107.633 135.24C104.113 135.24 101.193 136.24 98.8734 138.24C96.5534 140.16 95.3934 142.64 95.3934 145.68C95.3934 148.72 96.5134 151.2 98.7534 153.12C101.073 155.04 104.033 156 107.633 156C111.233 156 114.153 155.04 116.393 153.12C118.713 151.2 119.873 148.72 119.873 145.68C119.873 142.64 118.713 140.16 116.393 138.24ZM117.833 176.4C115.273 174.16 111.873 173.04 107.633 173.04C103.393 173.04 99.9534 174.16 97.3134 176.4C94.7534 178.56 93.4734 181.4 93.4734 184.92C93.4734 188.52 94.7534 191.48 97.3134 193.8C99.9534 196.04 103.393 197.16 107.633 197.16C111.873 197.16 115.273 196.04 117.833 193.8C120.473 191.48 121.793 188.52 121.793 184.92C121.793 181.4 120.473 178.56 117.833 176.4Z" fill="#FF4E4E"/>
</g>
<rect x="1.5" y="1.5" width="157" height="237" rx="18.5" stroke="#FF4E4E" stroke-width="3"/>
<defs>
<clipPath id="clip0_526_2513">
<rect width="160" height="240" rx="20" fill="white"/>
</clipPath>
</defs>
</svg>
