<svg width="160" height="240" viewBox="0 0 160 240" fill="none" xmlns="http://www.w3.org/2000/svg">
<g clip-path="url(#clip0_526_2517)">
<rect width="160" height="240" rx="20" fill="white"/>
<g opacity="0.2">
<path d="M49.1499 189.077C66.6161 172.078 101.937 129.875 119.597 97.0498C137.063 129.875 172.384 172.078 189.85 189.077C172.384 206.271 137.257 248.475 119.597 281.3C101.937 248.475 66.6161 206.271 49.1499 189.077Z" fill="#FF4E4E"/>
</g>
<g opacity="0.2">
<path d="M73.8999 27.9886C84.8489 17.3327 106.99 -9.12331 118.061 -29.7002C129.01 -9.12331 151.151 17.3327 162.1 27.9886C151.151 38.7669 129.131 65.2229 118.061 85.7998C106.99 65.2229 84.8489 38.7669 73.8999 27.9886Z" fill="#FF4E4E"/>
</g>
<path d="M19 40.4708C24.2138 35.3966 34.7572 22.7985 40.029 13C45.2428 22.7985 55.7862 35.3966 61 40.4708C55.7862 45.6034 45.3007 58.2015 40.029 68C34.7572 58.2015 24.2138 45.6034 19 40.4708Z" fill="#FF4E4E"/>
<path d="M130.433 200.88C121.233 209.76 109.473 214.2 95.1525 214.2C80.8325 214.2 69.0325 209.76 59.7525 200.88C50.5525 191.92 45.9525 180.36 45.9525 166.2C45.9525 152.04 50.5525 140.52 59.7525 131.64C69.0325 122.68 80.8325 118.2 95.1525 118.2C109.472 118.2 121.232 122.68 130.432 131.64C139.712 140.52 144.352 152.04 144.353 166.2C144.353 180.36 139.713 191.92 130.433 200.88ZM73.3125 188.04C78.9925 193.64 86.2725 196.44 95.1525 196.44C104.033 196.44 111.313 193.64 116.993 188.04C122.673 182.36 125.513 175.08 125.513 166.2C125.512 157.32 122.672 150.08 116.992 144.48C111.312 138.8 104.032 135.96 95.1525 135.96C86.2725 135.96 78.9925 138.8 73.3125 144.48C67.6325 150.08 64.7925 157.32 64.7925 166.2C64.7925 175.08 67.6325 182.36 73.3125 188.04ZM149.633 238.56L93.3525 238.56L93.3525 220.56L149.633 220.56L149.633 238.56Z" fill="#FF4E4E"/>
</g>
<rect x="1.5" y="1.5" width="157" height="237" rx="18.5" stroke="#FF4E4E" stroke-width="3"/>
<defs>
<clipPath id="clip0_526_2517">
<rect width="160" height="240" rx="20" fill="white"/>
</clipPath>
</defs>
</svg>
