<svg width="160" height="240" viewBox="0 0 160 240" fill="none" xmlns="http://www.w3.org/2000/svg">
<g clip-path="url(#clip0_526_2425)">
<rect width="160" height="240" rx="20" fill="white"/>
<g opacity="0.2">
<path d="M118.311 136.304C127.052 114.352 144.147 107.1 159.3 107.1C181.445 107.1 199.9 127.68 199.9 154.532C199.9 183.54 176.783 204.512 162.214 218.624C144.342 235.872 125.498 259.196 118.311 270.956C118.116 271.348 117.728 271.348 117.534 270.956C110.346 259.196 91.3085 235.872 73.4365 218.624C58.867 204.512 35.75 183.344 35.75 154.532C35.75 127.68 54.2047 107.1 76.3504 107.1C91.5027 107.1 108.209 114.156 117.534 136.304C117.728 136.892 118.116 136.892 118.311 136.304Z" fill="#FF4E4E"/>
</g>
<g opacity="0.2">
<path d="M117.254 -5.0934C122.734 -18.8544 133.451 -23.4004 142.949 -23.4004C156.831 -23.4004 168.4 -10.4995 168.4 6.33311C168.4 24.5172 153.909 37.6638 144.776 46.5102C133.572 57.3224 121.76 71.9434 117.254 79.3153C117.133 79.561 116.889 79.561 116.767 79.3153C112.262 71.9434 100.328 57.3224 89.1244 46.5102C79.9912 37.6638 65.5 24.3944 65.5 6.33311C65.5 -10.4995 77.0686 -23.4004 90.951 -23.4004C100.449 -23.4004 110.922 -18.9772 116.767 -5.0934C116.889 -4.72481 117.133 -4.72481 117.254 -5.0934Z" fill="#FF4E4E"/>
</g>
<path d="M39.645 24.7176C42.2544 18.1648 47.3574 16 51.8805 16C58.4911 16 64 22.1433 64 30.1588C64 38.8179 57.0994 45.0782 52.7503 49.2907C47.4154 54.4394 41.7905 61.4018 39.645 64.9122C39.587 65.0293 39.471 65.0293 39.413 64.9122C37.2675 61.4018 31.5846 54.4394 26.2497 49.2907C21.9006 45.0782 15 38.7594 15 30.1588C15 22.1433 20.5089 16 27.1195 16C31.6426 16 36.6296 18.1063 39.413 24.7176C39.471 24.8931 39.587 24.8931 39.645 24.7176Z" fill="#FF4E4E"/>
<path d="M119.923 192.84C122.563 190.44 123.883 187.36 123.883 183.6C123.883 179.84 122.603 176.84 120.043 174.6C117.563 172.28 114.243 171.12 110.083 171.12L91.1231 171.12C87.6831 171.12 84.9231 170.2 82.8431 168.36C80.7631 166.44 79.7231 163.96 79.7231 160.92L79.7231 135C79.7231 130.36 81.1631 126.6 84.0431 123.72C86.9231 120.84 90.6831 119.4 95.3231 119.4L138.763 119.4L138.763 137.16L101.923 137.16C100.883 137.16 100.003 137.48 99.2831 138.12C98.6431 138.76 98.3231 139.64 98.3231 140.76L98.3231 153.36L110.083 153.36C119.923 153.36 127.803 156.08 133.723 161.52C139.723 166.88 142.723 174.04 142.723 183C142.723 192.36 139.603 199.92 133.363 205.68C127.203 211.36 119.043 214.2 108.883 214.2C99.8431 214.2 92.3231 211.6 86.3231 206.4C80.3231 201.2 76.7631 194.28 75.6431 185.64L95.4431 185.64C96.0831 188.92 97.6431 191.56 100.123 193.56C102.603 195.48 105.723 196.44 109.483 196.44C113.803 196.44 117.283 195.24 119.923 192.84Z" fill="#FF4E4E"/>
</g>
<rect x="1.5" y="1.5" width="157" height="237" rx="18.5" stroke="#FF4E4E" stroke-width="3"/>
<defs>
<clipPath id="clip0_526_2425">
<rect width="160" height="240" rx="20" fill="white"/>
</clipPath>
</defs>
</svg>
