<svg width="160" height="240" viewBox="0 0 160 240" fill="none" xmlns="http://www.w3.org/2000/svg">
<g clip-path="url(#clip0_526_2409)">
<rect width="160" height="240" rx="20" fill="white"/>
<g opacity="0.2">
<path d="M118.311 136.304C127.052 114.352 144.147 107.1 159.3 107.1C181.445 107.1 199.9 127.68 199.9 154.532C199.9 183.54 176.783 204.512 162.214 218.624C144.342 235.872 125.498 259.196 118.311 270.956C118.116 271.348 117.728 271.348 117.534 270.956C110.346 259.196 91.3085 235.872 73.4365 218.624C58.867 204.512 35.75 183.344 35.75 154.532C35.75 127.68 54.2047 107.1 76.3504 107.1C91.5027 107.1 108.209 114.156 117.534 136.304C117.728 136.892 118.116 136.892 118.311 136.304Z" fill="#FF4E4E"/>
</g>
<g opacity="0.2">
<path d="M117.254 -5.0934C122.734 -18.8544 133.451 -23.4004 142.949 -23.4004C156.831 -23.4004 168.4 -10.4995 168.4 6.33311C168.4 24.5172 153.909 37.6638 144.776 46.5102C133.572 57.3224 121.76 71.9434 117.254 79.3153C117.133 79.561 116.889 79.561 116.767 79.3153C112.262 71.9434 100.328 57.3224 89.1244 46.5102C79.9912 37.6638 65.5 24.3944 65.5 6.33311C65.5 -10.4995 77.0686 -23.4004 90.951 -23.4004C100.449 -23.4004 110.922 -18.9772 116.767 -5.0934C116.889 -4.72481 117.133 -4.72481 117.254 -5.0934Z" fill="#FF4E4E"/>
</g>
<path d="M39.645 24.7176C42.2544 18.1648 47.3574 16 51.8805 16C58.4911 16 64 22.1433 64 30.1588C64 38.8179 57.0994 45.0782 52.7503 49.2907C47.4154 54.4394 41.7905 61.4018 39.645 64.9122C39.587 65.0293 39.471 65.0293 39.413 64.9122C37.2675 61.4018 31.5846 54.4394 26.2497 49.2907C21.9006 45.0782 15 38.7594 15 30.1588C15 22.1433 20.5089 16 27.1195 16C31.6426 16 36.6296 18.1063 39.413 24.7176C39.471 24.8931 39.587 24.8931 39.645 24.7176Z" fill="#FF4E4E"/>
<path d="M101.987 172.56C98.7869 172.56 97.1869 170.96 97.1869 167.76L97.1869 159.6C97.1869 158 97.8269 156.72 99.1069 155.76L116.747 141.72C117.707 140.92 118.187 140.16 118.187 139.44C118.187 137.92 117.307 137.16 115.547 137.16L78.8269 137.16L78.8269 119.4L122.507 119.4C128.267 119.4 132.587 120.68 135.467 123.24C138.347 125.72 139.787 129.24 139.787 133.8C139.787 138.84 136.227 144.12 129.107 149.64L118.307 158.04C125.507 159.4 131.267 162.32 135.587 166.8C139.907 171.2 142.067 177.08 142.067 184.44C142.067 193.24 138.867 200.4 132.467 205.92C126.067 211.44 118.027 214.2 108.347 214.2C98.9869 214.2 91.1469 211.68 84.8269 206.64C78.5869 201.52 74.9069 194.52 73.7869 185.64L93.5869 185.64C95.2669 192.84 100.227 196.44 108.467 196.44C112.867 196.44 116.427 195.36 119.147 193.2C121.867 190.96 123.227 188.04 123.227 184.44C123.227 180.6 121.987 177.68 119.507 175.68C117.027 173.6 113.667 172.56 109.427 172.56L101.987 172.56Z" fill="#FF4E4E"/>
</g>
<rect x="1.5" y="1.5" width="157" height="237" rx="18.5" stroke="#FF4E4E" stroke-width="3"/>
<defs>
<clipPath id="clip0_526_2409">
<rect width="160" height="240" rx="20" fill="white"/>
</clipPath>
</defs>
</svg>
