<svg width="160" height="240" viewBox="0 0 160 240" fill="none" xmlns="http://www.w3.org/2000/svg">
<g clip-path="url(#clip0_526_2736)">
<rect width="160" height="240" rx="20" fill="white"/>
<g opacity="0.2">
<path d="M32.3999 210.9C32.3999 188.487 48.5693 170.399 71.9467 170.399C77.9859 170.399 84.8043 172.365 87.9213 173.938C88.3109 174.135 88.5057 173.938 88.1161 173.545C82.6614 167.647 77.4014 157.03 77.4014 144.644C77.4014 122.231 95.5189 103.75 117.922 103.75C140.131 103.75 158.248 122.231 158.248 144.644C158.248 157.03 153.183 167.647 147.534 173.545C147.144 173.938 147.339 174.135 147.729 173.938C150.846 172.365 157.664 170.399 163.703 170.399C187.081 170.399 203.25 188.487 203.25 210.9C203.25 234.493 186.106 251.401 163.898 251.401C149.871 251.401 137.209 244.519 130.195 234.886C128.637 232.92 128.053 231.15 127.858 231.15C127.663 231.15 127.663 235.082 128.053 238.031C130.001 252.58 136.235 261.427 145.586 270.471C147.729 272.634 146.365 274.6 145.586 274.6H90.0642C89.285 274.6 87.9213 272.831 90.0642 270.471C99.4152 261.624 105.649 252.58 107.597 238.031C107.987 235.082 107.987 231.15 107.792 231.15C107.597 231.15 107.013 232.92 105.454 234.886C98.0515 244.913 85.7783 251.401 71.7519 251.401C49.5433 251.401 32.3999 234.493 32.3999 210.9Z" fill="black"/>
</g>
<g opacity="0.2">
<path d="M63.3999 41.6686C63.3999 27.6186 73.5359 16.2801 88.1904 16.2801C91.9762 16.2801 96.2504 17.5125 98.2043 18.4985C98.4486 18.6217 98.5707 18.4985 98.3265 18.252C94.9071 14.5547 91.6098 7.89942 91.6098 0.134981C91.6098 -13.915 102.967 -25.5 117.011 -25.5C130.933 -25.5 142.29 -13.915 142.29 0.134981C142.29 7.89942 139.115 14.5547 135.573 18.252C135.329 18.4985 135.451 18.6217 135.695 18.4985C137.649 17.5125 141.924 16.2801 145.709 16.2801C160.364 16.2801 170.5 27.6186 170.5 41.6686C170.5 56.458 159.753 67.0571 145.831 67.0571C137.039 67.0571 129.101 62.7435 124.705 56.7045C123.728 55.472 123.361 54.3628 123.239 54.3628C123.117 54.3628 123.117 56.8277 123.361 58.6764C124.582 67.7965 128.49 73.3426 134.352 79.0118C135.695 80.3675 134.841 81.6 134.352 81.6H99.5477C99.0592 81.6 98.2043 80.4908 99.5477 79.0118C105.409 73.4658 109.317 67.7965 110.539 58.6764C110.783 56.8277 110.783 54.3628 110.661 54.3628C110.539 54.3628 110.172 55.472 109.195 56.7045C104.555 62.99 96.861 67.0571 88.0683 67.0571C74.1465 67.0571 63.3999 56.458 63.3999 41.6686Z" fill="black"/>
</g>
<path d="M14 46.985C14 40.2946 18.8267 34.8953 25.805 34.8953C27.6078 34.8953 29.6431 35.4822 30.5735 35.9517C30.6899 36.0104 30.748 35.9517 30.6317 35.8343C29.0034 34.0736 27.4333 30.9045 27.4333 27.2071C27.4333 20.5167 32.8415 15 39.5291 15C46.1585 15 51.5667 20.5167 51.5667 27.2071C51.5667 30.9045 50.0547 34.0736 48.3683 35.8343C48.252 35.9517 48.3101 36.0104 48.4265 35.9517C49.3569 35.4822 51.3922 34.8953 53.195 34.8953C60.1733 34.8953 65 40.2946 65 46.985C65 54.0276 59.8826 59.0748 53.2531 59.0748C49.0661 59.0748 45.2862 57.0207 43.1927 54.145C42.7275 53.5581 42.553 53.0299 42.4949 53.0299C42.4367 53.0299 42.4367 54.2037 42.553 55.084C43.1346 59.4269 44.9954 62.0679 47.7868 64.7675C48.4265 65.4131 48.0194 66 47.7868 66H31.2132C30.9806 66 30.5735 65.4718 31.2132 64.7675C34.0046 62.1266 35.8654 59.4269 36.447 55.084C36.5633 54.2037 36.5633 53.0299 36.5051 53.0299C36.447 53.0299 36.2725 53.5581 35.8073 54.145C33.5975 57.1381 29.9339 59.0748 25.7469 59.0748C19.1174 59.0748 14 54.0276 14 46.985Z" fill="black"/>
<path d="M107.528 213L85.5675 213L125.647 141.48C126.127 140.68 126.367 139.96 126.367 139.32C126.367 137.88 125.567 137.16 123.967 137.16L82.5675 137.16L82.5675 119.4L128.647 119.4C140.487 119.4 146.407 124.64 146.407 135.12C146.407 139.12 144.607 144.48 141.007 151.2L107.528 213Z" fill="black"/>
</g>
<rect x="1.5" y="1.5" width="157" height="237" rx="18.5" stroke="black" stroke-width="3"/>
<defs>
<clipPath id="clip0_526_2736">
<rect width="160" height="240" rx="20" fill="white"/>
</clipPath>
</defs>
</svg>
