<svg width="160" height="240" viewBox="0 0 160 240" fill="none" xmlns="http://www.w3.org/2000/svg">
<g clip-path="url(#clip0_526_2505)">
<rect width="160" height="240" rx="20" fill="white"/>
<g opacity="0.2">
<path d="M49.15 189.077C66.6162 172.078 101.937 129.875 119.597 97.0498C137.063 129.875 172.384 172.078 189.85 189.077C172.384 206.271 137.257 248.475 119.597 281.3C101.937 248.475 66.6162 206.271 49.15 189.077Z" fill="#FF4E4E"/>
</g>
<g opacity="0.2">
<path d="M73.9 27.9886C84.849 17.3327 106.99 -9.12331 118.061 -29.7002C129.01 -9.12331 151.151 17.3327 162.1 27.9886C151.151 38.7669 129.131 65.2229 118.061 85.7998C106.99 65.2229 84.849 38.7669 73.9 27.9886Z" fill="#FF4E4E"/>
</g>
<path d="M19 40.4708C24.2138 35.3966 34.7572 22.7985 40.029 13C45.2428 22.7985 55.7862 35.3966 61 40.4708C55.7862 45.6034 45.3007 58.2015 40.029 68C34.7572 58.2015 24.2138 45.6034 19 40.4708Z" fill="#FF4E4E"/>
<path d="M128.708 213L120.668 191.16L80.5884 191.16L72.9084 213L53.7084 213L84.1884 131.52C85.9484 126.8 87.9884 123.52 90.3084 121.68C92.7084 119.76 96.0284 118.8 100.268 118.8C104.828 118.8 108.428 119.8 111.068 121.8C113.708 123.72 115.908 126.96 117.668 131.52L148.388 213L128.708 213ZM98.8284 139.56L86.8284 173.4L114.188 173.4L101.828 139.56C101.428 138.68 100.908 138.24 100.268 138.24C99.5484 138.24 99.0684 138.68 98.8284 139.56Z" fill="#FF4E4E"/>
</g>
<rect x="1.5" y="1.5" width="157" height="237" rx="18.5" stroke="#FF4E4E" stroke-width="3"/>
<defs>
<clipPath id="clip0_526_2505">
<rect width="160" height="240" rx="20" fill="white"/>
</clipPath>
</defs>
</svg>
