<svg width="160" height="240" viewBox="0 0 160 240" fill="none" xmlns="http://www.w3.org/2000/svg">
<g clip-path="url(#clip0_526_2510)">
<rect width="160" height="240" rx="20" fill="white"/>
<g opacity="0.2">
<path d="M49.15 189.077C66.6162 172.078 101.937 129.875 119.597 97.0498C137.063 129.875 172.384 172.078 189.85 189.077C172.384 206.271 137.257 248.475 119.597 281.3C101.937 248.475 66.6162 206.271 49.15 189.077Z" fill="#FF4E4E"/>
</g>
<g opacity="0.2">
<path d="M73.9 27.9886C84.849 17.3327 106.99 -9.12331 118.061 -29.7002C129.01 -9.12331 151.151 17.3327 162.1 27.9886C151.151 38.7669 129.131 65.2229 118.061 85.7998C106.99 65.2229 84.849 38.7669 73.9 27.9886Z" fill="#FF4E4E"/>
</g>
<path d="M19 40.4708C24.2138 35.3966 34.7572 22.7985 40.029 13C45.2428 22.7985 55.7862 35.3966 61 40.4708C55.7862 45.6034 45.3007 58.2015 40.029 68C34.7572 58.2015 24.2138 45.6034 19 40.4708Z" fill="#FF4E4E"/>
<path d="M119.923 192.84C122.563 190.44 123.883 187.36 123.883 183.6C123.883 179.84 122.603 176.84 120.043 174.6C117.563 172.28 114.243 171.12 110.083 171.12L91.1231 171.12C87.6831 171.12 84.9231 170.2 82.8431 168.36C80.7631 166.44 79.7231 163.96 79.7231 160.92L79.7231 135C79.7231 130.36 81.1631 126.6 84.0431 123.72C86.9231 120.84 90.6831 119.4 95.3231 119.4L138.763 119.4L138.763 137.16L101.923 137.16C100.883 137.16 100.003 137.48 99.2831 138.12C98.6431 138.76 98.3231 139.64 98.3231 140.76L98.3231 153.36L110.083 153.36C119.923 153.36 127.803 156.08 133.723 161.52C139.723 166.88 142.723 174.04 142.723 183C142.723 192.36 139.603 199.92 133.363 205.68C127.203 211.36 119.043 214.2 108.883 214.2C99.8431 214.2 92.3231 211.6 86.3231 206.4C80.3231 201.2 76.7631 194.28 75.6431 185.64L95.4431 185.64C96.0831 188.92 97.6431 191.56 100.123 193.56C102.603 195.48 105.723 196.44 109.483 196.44C113.803 196.44 117.283 195.24 119.923 192.84Z" fill="#FF4E4E"/>
</g>
<rect x="1.5" y="1.5" width="157" height="237" rx="18.5" stroke="#FF4E4E" stroke-width="3"/>
<defs>
<clipPath id="clip0_526_2510">
<rect width="160" height="240" rx="20" fill="white"/>
</clipPath>
</defs>
</svg>
