<svg width="160" height="240" viewBox="0 0 160 240" fill="none" xmlns="http://www.w3.org/2000/svg">
<g clip-path="url(#clip0_526_2509)">
<rect width="160" height="240" rx="20" fill="white"/>
<g opacity="0.2">
<path d="M49.15 189.077C66.6162 172.078 101.937 129.875 119.597 97.0498C137.063 129.875 172.384 172.078 189.85 189.077C172.384 206.271 137.257 248.475 119.597 281.3C101.937 248.475 66.6162 206.271 49.15 189.077Z" fill="#FF4E4E"/>
</g>
<g opacity="0.2">
<path d="M73.9 27.9886C84.849 17.3327 106.99 -9.12331 118.061 -29.7002C129.01 -9.12331 151.151 17.3327 162.1 27.9886C151.151 38.7669 129.131 65.2229 118.061 85.7998C106.99 65.2229 84.849 38.7669 73.9 27.9886Z" fill="#FF4E4E"/>
</g>
<path d="M19 40.4708C24.2138 35.3966 34.7572 22.7985 40.029 13C45.2428 22.7985 55.7862 35.3966 61 40.4708C55.7862 45.6034 45.3007 58.2015 40.029 68C34.7572 58.2015 24.2138 45.6034 19 40.4708Z" fill="#FF4E4E"/>
<path d="M145.469 195.36L135.629 195.36L135.629 213L117.029 213L117.029 195.36L91.4691 195.36C85.9491 195.36 81.3891 193.88 77.7891 190.92C74.1891 187.96 72.3891 183.8 72.3891 178.44C72.3891 174.52 73.9891 169.68 77.1891 163.92L102.509 119.4L123.629 119.4L93.5091 173.28C93.0291 174.24 92.7891 174.92 92.7891 175.32C92.7891 176.84 93.6291 177.6 95.3091 177.6L117.029 177.6L117.029 150.6L135.629 150.6L135.629 177.6L145.469 177.6L145.469 195.36Z" fill="#FF4E4E"/>
</g>
<rect x="1.5" y="1.5" width="157" height="237" rx="18.5" stroke="#FF4E4E" stroke-width="3"/>
<defs>
<clipPath id="clip0_526_2509">
<rect width="160" height="240" rx="20" fill="white"/>
</clipPath>
</defs>
</svg>
