<svg width="160" height="240" viewBox="0 0 160 240" fill="none" xmlns="http://www.w3.org/2000/svg">
<g clip-path="url(#clip0_526_2433)">
<rect width="160" height="240" rx="20" fill="white"/>
<g opacity="0.2">
<path d="M118.311 136.304C127.052 114.352 144.147 107.1 159.3 107.1C181.445 107.1 199.9 127.68 199.9 154.532C199.9 183.54 176.783 204.512 162.214 218.624C144.342 235.872 125.498 259.196 118.311 270.956C118.116 271.348 117.728 271.348 117.534 270.956C110.346 259.196 91.3085 235.872 73.4365 218.624C58.867 204.512 35.75 183.344 35.75 154.532C35.75 127.68 54.2047 107.1 76.3504 107.1C91.5027 107.1 108.209 114.156 117.534 136.304C117.728 136.892 118.116 136.892 118.311 136.304Z" fill="#FF4E4E"/>
</g>
<g opacity="0.2">
<path d="M117.254 -5.0934C122.734 -18.8544 133.451 -23.4004 142.949 -23.4004C156.831 -23.4004 168.4 -10.4995 168.4 6.33311C168.4 24.5172 153.909 37.6638 144.776 46.5102C133.572 57.3224 121.76 71.9434 117.254 79.3153C117.133 79.561 116.889 79.561 116.767 79.3153C112.262 71.9434 100.328 57.3224 89.1244 46.5102C79.9912 37.6638 65.5 24.3944 65.5 6.33311C65.5 -10.4995 77.0686 -23.4004 90.951 -23.4004C100.449 -23.4004 110.922 -18.9772 116.767 -5.0934C116.889 -4.72481 117.133 -4.72481 117.254 -5.0934Z" fill="#FF4E4E"/>
</g>
<path d="M39.645 24.7176C42.2544 18.1648 47.3574 16 51.8805 16C58.4911 16 64 22.1433 64 30.1588C64 38.8179 57.0994 45.0782 52.7503 49.2907C47.4154 54.4394 41.7905 61.4018 39.645 64.9122C39.587 65.0293 39.471 65.0293 39.413 64.9122C37.2675 61.4018 31.5846 54.4394 26.2497 49.2907C21.9006 45.0782 15 38.7594 15 30.1588C15 22.1433 20.5089 16 27.1195 16C31.6426 16 36.6296 18.1063 39.413 24.7176C39.471 24.8931 39.587 24.8931 39.645 24.7176Z" fill="#FF4E4E"/>
<path d="M145.075 180.84C145.075 190.68 141.835 198.72 135.355 204.96C128.875 211.12 120.635 214.2 110.635 214.2C100.555 214.2 92.1953 211.12 85.5553 204.96C78.9953 198.8 75.7153 190.76 75.7153 180.84C75.7153 172.6 79.4753 162.92 86.9953 151.8L108.715 119.4L131.035 119.4L110.395 149.4L111.475 149.4C121.235 149.4 129.275 152.28 135.595 158.04C141.915 163.8 145.075 171.4 145.075 180.84ZM126.235 180.84C126.235 176.2 124.755 172.44 121.795 169.56C118.835 166.68 115.035 165.24 110.395 165.24C105.755 165.24 101.955 166.68 98.9953 169.56C96.0353 172.44 94.5553 176.2 94.5553 180.84C94.5553 185.48 96.0353 189.24 98.9953 192.12C101.955 195 105.755 196.44 110.395 196.44C114.955 196.44 118.715 195 121.675 192.12C124.715 189.16 126.235 185.4 126.235 180.84Z" fill="#FF4E4E"/>
</g>
<rect x="1.5" y="1.5" width="157" height="237" rx="18.5" stroke="#FF4E4E" stroke-width="3"/>
<defs>
<clipPath id="clip0_526_2433">
<rect width="160" height="240" rx="20" fill="white"/>
</clipPath>
</defs>
</svg>
