<svg width="160" height="240" viewBox="0 0 160 240" fill="none" xmlns="http://www.w3.org/2000/svg">
<g clip-path="url(#clip0_526_2508)">
<rect width="160" height="240" rx="20" fill="white"/>
<g opacity="0.2">
<path d="M49.15 189.077C66.6162 172.078 101.937 129.875 119.597 97.0498C137.063 129.875 172.384 172.078 189.85 189.077C172.384 206.271 137.257 248.475 119.597 281.3C101.937 248.475 66.6162 206.271 49.15 189.077Z" fill="#FF4E4E"/>
</g>
<g opacity="0.2">
<path d="M73.9 27.9886C84.849 17.3327 106.99 -9.12331 118.061 -29.7002C129.01 -9.12331 151.151 17.3327 162.1 27.9886C151.151 38.7669 129.131 65.2229 118.061 85.7998C106.99 65.2229 84.849 38.7669 73.9 27.9886Z" fill="#FF4E4E"/>
</g>
<path d="M19 40.4708C24.2138 35.3966 34.7572 22.7985 40.029 13C45.2428 22.7985 55.7862 35.3966 61 40.4708C55.7862 45.6034 45.3007 58.2015 40.029 68C34.7572 58.2015 24.2138 45.6034 19 40.4708Z" fill="#FF4E4E"/>
<path d="M101.987 172.56C98.7869 172.56 97.1869 170.96 97.1869 167.76L97.1869 159.6C97.1869 158 97.8269 156.72 99.1069 155.76L116.747 141.72C117.707 140.92 118.187 140.16 118.187 139.44C118.187 137.92 117.307 137.16 115.547 137.16L78.8269 137.16L78.8269 119.4L122.507 119.4C128.267 119.4 132.587 120.68 135.467 123.24C138.347 125.72 139.787 129.24 139.787 133.8C139.787 138.84 136.227 144.12 129.107 149.64L118.307 158.04C125.507 159.4 131.267 162.32 135.587 166.8C139.907 171.2 142.067 177.08 142.067 184.44C142.067 193.24 138.867 200.4 132.467 205.92C126.067 211.44 118.027 214.2 108.347 214.2C98.9869 214.2 91.1469 211.68 84.8269 206.64C78.5869 201.52 74.9069 194.52 73.7869 185.64L93.5869 185.64C95.2669 192.84 100.227 196.44 108.467 196.44C112.867 196.44 116.427 195.36 119.147 193.2C121.867 190.96 123.227 188.04 123.227 184.44C123.227 180.6 121.987 177.68 119.507 175.68C117.027 173.6 113.667 172.56 109.427 172.56L101.987 172.56Z" fill="#FF4E4E"/>
</g>
<rect x="1.5" y="1.5" width="157" height="237" rx="18.5" stroke="#FF4E4E" stroke-width="3"/>
<defs>
<clipPath id="clip0_526_2508">
<rect width="160" height="240" rx="20" fill="white"/>
</clipPath>
</defs>
</svg>
