<svg width="160" height="240" viewBox="0 0 160 240" fill="none" xmlns="http://www.w3.org/2000/svg">
<g clip-path="url(#clip0_526_2511)">
<rect width="160" height="240" rx="20" fill="white"/>
<g opacity="0.2">
<path d="M49.1499 189.077C66.6161 172.078 101.937 129.875 119.597 97.0498C137.063 129.875 172.384 172.078 189.85 189.077C172.384 206.271 137.257 248.475 119.597 281.3C101.937 248.475 66.6161 206.271 49.1499 189.077Z" fill="#FF4E4E"/>
</g>
<g opacity="0.2">
<path d="M73.8999 27.9886C84.8489 17.3327 106.99 -9.12331 118.061 -29.7002C129.01 -9.12331 151.151 17.3327 162.1 27.9886C151.151 38.7669 129.131 65.2229 118.061 85.7998C106.99 65.2229 84.8489 38.7669 73.8999 27.9886Z" fill="#FF4E4E"/>
</g>
<path d="M19 40.4708C24.2138 35.3966 34.7572 22.7985 40.029 13C45.2428 22.7985 55.7862 35.3966 61 40.4708C55.7862 45.6034 45.3007 58.2015 40.029 68C34.7572 58.2015 24.2138 45.6034 19 40.4708Z" fill="#FF4E4E"/>
<path d="M145.075 180.84C145.075 190.68 141.835 198.72 135.355 204.96C128.875 211.12 120.635 214.2 110.635 214.2C100.555 214.2 92.1953 211.12 85.5553 204.96C78.9953 198.8 75.7153 190.76 75.7153 180.84C75.7153 172.6 79.4753 162.92 86.9953 151.8L108.715 119.4L131.035 119.4L110.395 149.4L111.475 149.4C121.235 149.4 129.275 152.28 135.595 158.04C141.915 163.8 145.075 171.4 145.075 180.84ZM126.235 180.84C126.235 176.2 124.755 172.44 121.795 169.56C118.835 166.68 115.035 165.24 110.395 165.24C105.755 165.24 101.955 166.68 98.9953 169.56C96.0353 172.44 94.5553 176.2 94.5553 180.84C94.5553 185.48 96.0353 189.24 98.9953 192.12C101.955 195 105.755 196.44 110.395 196.44C114.955 196.44 118.715 195 121.675 192.12C124.715 189.16 126.235 185.4 126.235 180.84Z" fill="#FF4E4E"/>
</g>
<rect x="1.5" y="1.5" width="157" height="237" rx="18.5" stroke="#FF4E4E" stroke-width="3"/>
<defs>
<clipPath id="clip0_526_2511">
<rect width="160" height="240" rx="20" fill="white"/>
</clipPath>
</defs>
</svg>
