<svg width="160" height="240" viewBox="0 0 160 240" fill="none" xmlns="http://www.w3.org/2000/svg">
<g clip-path="url(#clip0_526_2629)">
<rect width="160" height="240" rx="20" fill="white"/>
<g opacity="0.2">
<path d="M76.5755 146.686C62.1318 160.039 39.1001 180.165 39.1001 208.031C39.1001 230.672 54.91 250.604 78.5273 250.604C91.0191 250.604 102.73 245.186 108.976 236.09C110.342 234.155 111.123 232.22 111.318 232.22C111.513 232.22 111.318 235.316 110.733 238.413C108.781 252.733 103.316 261.441 93.3613 270.536C91.2143 272.665 92.5806 274.6 93.3613 274.6H148.989C149.77 274.6 151.136 272.665 148.989 270.536C139.034 261.441 133.569 252.733 131.617 238.413C131.032 235.316 130.837 232.22 131.032 232.22C131.227 232.22 132.008 234.155 133.374 236.09C139.62 245.186 151.331 250.604 163.823 250.604C187.245 250.604 203.25 230.672 203.25 208.031C203.25 180.165 180.218 160.039 165.775 146.686C148.403 130.044 128.69 108.37 121.663 97.3401C121.468 96.953 121.077 96.953 120.882 97.3401C113.66 108.37 93.9469 130.044 76.5755 146.686Z" fill="black"/>
</g>
<g opacity="0.2">
<path d="M91.0921 1.41528C82.0379 9.78553 67.6001 22.4016 67.6001 39.8699C67.6001 54.0629 77.5108 66.5576 92.3157 66.5576C100.146 66.5576 107.488 63.161 111.403 57.4595C112.259 56.2464 112.749 55.0334 112.871 55.0334C112.994 55.0334 112.871 56.9743 112.504 58.9152C111.281 67.892 107.855 73.3509 101.615 79.0523C100.269 80.3867 101.125 81.5998 101.615 81.5998H136.486C136.975 81.5998 137.831 80.3867 136.486 79.0523C130.246 73.3509 126.82 67.892 125.596 58.9152C125.229 56.9743 125.107 55.0334 125.229 55.0334C125.351 55.0334 125.841 56.2464 126.697 57.4595C130.613 63.161 137.954 66.5576 145.785 66.5576C160.467 66.5576 170.5 54.0629 170.5 39.8699C170.5 22.4016 156.062 9.78553 147.008 1.41528C136.119 -9.01719 123.761 -22.6037 119.356 -29.5182C119.234 -29.7609 118.989 -29.7609 118.867 -29.5182C114.339 -22.6037 101.982 -9.01719 91.0921 1.41528Z" fill="black"/>
</g>
<path d="M27.1867 27.8169C22.8751 31.8027 16 37.8104 16 46.1286C16 52.8872 20.7194 58.8371 27.7693 58.8371C31.4982 58.8371 34.9941 57.2196 36.8585 54.5046C37.2663 53.927 37.4994 53.3493 37.5577 53.3493C37.6159 53.3493 37.5577 54.2736 37.3829 55.1978C36.8002 59.4725 35.1688 62.0719 32.1974 64.7869C31.5565 65.4223 31.9643 66 32.1974 66H48.8026C49.0357 66 49.4435 65.4223 48.8026 64.7869C45.8312 62.0719 44.1998 59.4725 43.6171 55.1978C43.4423 54.2736 43.3841 53.3493 43.4423 53.3493C43.5006 53.3493 43.7337 53.927 44.1415 54.5046C46.0059 57.2196 49.5018 58.8371 53.2307 58.8371C60.2224 58.8371 65 52.8872 65 46.1286C65 37.8104 58.1249 31.8027 53.8133 27.8169C48.6278 22.849 42.7432 16.3793 40.6457 13.0867C40.5874 12.9711 40.4709 12.9711 40.4126 13.0867C38.2568 16.3793 32.3722 22.849 27.1867 27.8169Z" fill="black"/>
<path d="M130.433 200.88C121.233 209.76 109.473 214.2 95.1525 214.2C80.8325 214.2 69.0325 209.76 59.7525 200.88C50.5525 191.92 45.9525 180.36 45.9525 166.2C45.9525 152.04 50.5525 140.52 59.7525 131.64C69.0325 122.68 80.8325 118.2 95.1525 118.2C109.472 118.2 121.232 122.68 130.432 131.64C139.712 140.52 144.352 152.04 144.353 166.2C144.353 180.36 139.713 191.92 130.433 200.88ZM73.3125 188.04C78.9925 193.64 86.2725 196.44 95.1525 196.44C104.033 196.44 111.313 193.64 116.993 188.04C122.673 182.36 125.513 175.08 125.513 166.2C125.512 157.32 122.672 150.08 116.992 144.48C111.312 138.8 104.032 135.96 95.1525 135.96C86.2725 135.96 78.9925 138.8 73.3125 144.48C67.6325 150.08 64.7925 157.32 64.7925 166.2C64.7925 175.08 67.6325 182.36 73.3125 188.04ZM149.633 238.56L93.3525 238.56L93.3525 220.56L149.633 220.56L149.633 238.56Z" fill="black"/>
</g>
<rect x="1.5" y="1.5" width="157" height="237" rx="18.5" stroke="black" stroke-width="3"/>
<defs>
<clipPath id="clip0_526_2629">
<rect width="160" height="240" rx="20" fill="white"/>
</clipPath>
</defs>
</svg>
