<svg width="160" height="240" viewBox="0 0 160 240" fill="none" xmlns="http://www.w3.org/2000/svg">
<g clip-path="url(#clip0_526_2512)">
<rect width="160" height="240" rx="20" fill="white"/>
<g opacity="0.2">
<path d="M49.1499 189.077C66.6161 172.078 101.937 129.875 119.597 97.0498C137.063 129.875 172.384 172.078 189.85 189.077C172.384 206.271 137.257 248.475 119.597 281.3C101.937 248.475 66.6161 206.271 49.1499 189.077Z" fill="#FF4E4E"/>
</g>
<g opacity="0.2">
<path d="M73.8999 27.9886C84.8489 17.3327 106.99 -9.12331 118.061 -29.7002C129.01 -9.12331 151.151 17.3327 162.1 27.9886C151.151 38.7669 129.131 65.2229 118.061 85.7998C106.99 65.2229 84.8489 38.7669 73.8999 27.9886Z" fill="#FF4E4E"/>
</g>
<path d="M19 40.4708C24.2138 35.3966 34.7572 22.7985 40.029 13C45.2428 22.7985 55.7862 35.3966 61 40.4708C55.7862 45.6034 45.3007 58.2015 40.029 68C34.7572 58.2015 24.2138 45.6034 19 40.4708Z" fill="#FF4E4E"/>
<path d="M107.528 213L85.5675 213L125.647 141.48C126.127 140.68 126.367 139.96 126.367 139.32C126.367 137.88 125.567 137.16 123.967 137.16L82.5675 137.16L82.5675 119.4L128.647 119.4C140.487 119.4 146.407 124.64 146.407 135.12C146.407 139.12 144.607 144.48 141.007 151.2L107.528 213Z" fill="#FF4E4E"/>
</g>
<rect x="1.5" y="1.5" width="157" height="237" rx="18.5" stroke="#FF4E4E" stroke-width="3"/>
<defs>
<clipPath id="clip0_526_2512">
<rect width="160" height="240" rx="20" fill="white"/>
</clipPath>
</defs>
</svg>
